<?xml version="1.0" encoding="utf-8"?>
<!-- Generator: Adobe Illustrator 16.0.0, SVG Export Plug-In . SVG Version: 6.00 Build 0)  -->
<!DOCTYPE svg PUBLIC "-//W3C//DTD SVG 1.1//EN" "http://www.w3.org/Graphics/SVG/1.1/DTD/svg11.dtd">
<svg version="1.1" id="Capa_1" xmlns="http://www.w3.org/2000/svg" xmlns:xlink="http://www.w3.org/1999/xlink" x="0px" y="0px"
	 width="32px" height="32px" viewBox="0 0 32 32" enable-background="new 0 0 32 32" xml:space="preserve">
<g>
	<g>
		<path fill="#211915" d="M16,4.004C9.385,4.004,4.004,9.385,4.004,16c0,6.614,5.381,11.996,11.996,11.996S27.996,22.614,27.996,16
			C27.996,9.385,22.615,4.004,16,4.004z M16,25.246c-5.099,0-9.247-4.147-9.247-9.246S10.901,6.753,16,6.753
			c5.1,0,9.246,4.148,9.246,9.247S21.1,25.246,16,25.246z M15.407,17.541l-2.597-2.526l-1.918,1.971l5.051,4.915l6.359-10.279
			l-2.338-1.446L15.407,17.541z"/>
	</g>
</g>
</svg>
