<?xml version="1.0" encoding="utf-8"?>
<!-- Generator: Adobe Illustrator 16.0.0, SVG Export Plug-In . SVG Version: 6.00 Build 0)  -->
<!DOCTYPE svg PUBLIC "-//W3C//DTD SVG 1.1//EN" "http://www.w3.org/Graphics/SVG/1.1/DTD/svg11.dtd">
<svg version="1.1" id="Capa_1" xmlns="http://www.w3.org/2000/svg" xmlns:xlink="http://www.w3.org/1999/xlink" x="0px" y="0px"
	 width="32px" height="32px" viewBox="0 0 32 32" enable-background="new 0 0 32 32" xml:space="preserve">
<g>
	<g>
		<path fill="#211915" d="M18.983,12.972c-1.936-1.62-3.458-1.62-3.458-1.62h-2.27v2.779h1.135c0,0,3.664,0.138,3.767,3.397v1.636
			h2.87v-2.282C21.027,16.882,20.842,14.527,18.983,12.972z M24.568,5.966l-1.922,1.933l0.998,1.005l-0.752,0.758
			c-1.475-1.515-3.346-2.629-5.442-3.189V5.235h1.526V2.01H9.805v3.226h1.525v1.236c-5.084,1.362-8.844,6.018-8.844,11.552
			c0,6.599,5.34,11.967,11.904,11.967s11.904-5.368,11.904-11.967c0-1.72-0.369-3.352-1.021-4.831l1.318-1.326l1,1.004l1.922-1.933
			L24.568,5.966z M14.391,27.248c-5.061,0-9.176-4.139-9.176-9.225c0-5.087,4.115-9.226,9.176-9.226s9.176,4.139,9.176,9.226
			C23.566,23.109,19.451,27.248,14.391,27.248z"/>
	</g>
</g>
</svg>
