<?xml version="1.0" encoding="utf-8"?>
<!-- Generator: Adobe Illustrator 16.0.0, SVG Export Plug-In . SVG Version: 6.00 Build 0)  -->
<!DOCTYPE svg PUBLIC "-//W3C//DTD SVG 1.1//EN" "http://www.w3.org/Graphics/SVG/1.1/DTD/svg11.dtd">
<svg version="1.1" id="Capa_1" xmlns="http://www.w3.org/2000/svg" xmlns:xlink="http://www.w3.org/1999/xlink" x="0px" y="0px"
	 width="32px" height="32px" viewBox="0 0 32 32" enable-background="new 0 0 32 32" xml:space="preserve">
<g>
	<g>
		<path fill="#211915" d="M21.376,16.603c1.666-1.479,2.72-3.617,2.72-5.998c0-4.455-3.668-8.078-8.177-8.078
			c-4.51,0-8.178,3.624-8.178,8.078c0,2.578,1.233,4.871,3.142,6.352L8.841,28.057l4.138-2.515l2.977,3.793l0.523-2.843l0.775,2.981
			l2.696-3.992l4.309,2.215L21.376,16.603z M14.67,24.139l-1.16-1.478l-1.615,0.981l1.018-5.533c0.86,0.337,1.79,0.532,2.763,0.561
			L14.67,24.139z M15.918,16.503c-3.292,0-5.972-2.646-5.972-5.898c0-3.253,2.68-5.899,5.972-5.899s5.971,2.646,5.971,5.899
			C21.89,13.856,19.211,16.503,15.918,16.503z M19.213,22.644l-1.051,1.559l-0.739-2.84l0.542-2.946c0.51-0.131,1-0.308,1.467-0.528
			l1.461,5.62L19.213,22.644z M20.667,9.209l-3.281-0.471l-1.467-2.938l-1.467,2.938l-3.283,0.471l2.375,2.286l-0.559,3.228
			l2.935-1.523l2.935,1.523l-0.56-3.228L20.667,9.209z"/>
	</g>
</g>
</svg>
