<?xml version="1.0" encoding="utf-8"?>
<!-- Generator: Adobe Illustrator 16.0.0, SVG Export Plug-In . SVG Version: 6.00 Build 0)  -->
<!DOCTYPE svg PUBLIC "-//W3C//DTD SVG 1.1//EN" "http://www.w3.org/Graphics/SVG/1.1/DTD/svg11.dtd">
<svg version="1.1" id="Capa_1" xmlns="http://www.w3.org/2000/svg" xmlns:xlink="http://www.w3.org/1999/xlink" x="0px" y="0px"
	 width="32px" height="32px" viewBox="0 0 32 32" enable-background="new 0 0 32 32" xml:space="preserve">
<path fill="#211915" d="M25.91,9.596h-5.318V7.352c0-0.681-0.563-1.236-1.258-1.236h-6.668c-0.693,0-1.258,0.555-1.258,1.236v2.245
	H6.089c-0.885,0-1.605,0.707-1.605,1.577v13.134c0,0.87,0.72,1.577,1.605,1.577H25.91c0.886,0,1.605-0.707,1.605-1.577V11.173
	C27.516,10.303,26.796,9.596,25.91,9.596z M20.553,11.87v11.742h-9.536V11.87H20.553z M13.722,8.389h4.555v1.208h-4.555V8.389z
	 M6.799,11.87h1.905v11.742H6.799V11.87z M25.201,23.611h-2.336V11.87h2.336V23.611z"/>
</svg>
