<?xml version="1.0" encoding="utf-8"?>
<!-- Generator: Adobe Illustrator 16.0.0, SVG Export Plug-In . SVG Version: 6.00 Build 0)  -->
<!DOCTYPE svg PUBLIC "-//W3C//DTD SVG 1.1//EN" "http://www.w3.org/Graphics/SVG/1.1/DTD/svg11.dtd">
<svg version="1.1" id="Capa_1" xmlns="http://www.w3.org/2000/svg" xmlns:xlink="http://www.w3.org/1999/xlink" x="0px" y="0px"
	 width="32px" height="32px" viewBox="0 0 32 32" enable-background="new 0 0 32 32" xml:space="preserve">
<g>
	<g>
		<path fill="#211915" d="M22.891,22.482c-0.713,0-1.294,0.582-1.294,1.298v2.793l4.098-4.091H22.891z M25.608,28.625
			c1.186,0,2.146-0.963,2.146-2.149v-3.644l-5.802,5.793H25.608z M25.608,3.375H8.532c-1.163,0-2.104,0.929-2.139,2.085h2.032
			c0.485-0.36,1.078-0.558,1.697-0.558c1.576,0,2.859,1.286,2.859,2.865c0,1.58-1.283,2.864-2.859,2.864
			c-0.614,0-1.205-0.198-1.692-0.556H6.387v3.619h2.039c0.485-0.359,1.078-0.558,1.697-0.558c1.576,0,2.859,1.285,2.859,2.865
			c0,1.579-1.283,2.864-2.859,2.864c-0.614,0-1.206-0.198-1.693-0.557H6.387v3.619h2.039c0.486-0.359,1.079-0.558,1.697-0.558
			c1.576,0,2.859,1.285,2.859,2.864S11.699,27.1,10.123,27.1c-0.614,0-1.205-0.198-1.692-0.557H6.394
			c0.037,1.155,0.978,2.082,2.139,2.082h11.362V23.78c0-1.656,1.345-3.003,2.996-3.003h4.863V5.524
			C27.754,4.337,26.794,3.375,25.608,3.375z M5.272,8.796h3.646c0.291,0.338,0.724,0.556,1.205,0.556
			c0.874,0,1.583-0.709,1.583-1.585c0-0.876-0.709-1.586-1.583-1.586c-0.481,0-0.914,0.213-1.205,0.558H5.272
			c-0.567,0-1.026,0.46-1.026,1.028C4.246,8.337,4.705,8.796,5.272,8.796z M5.272,17.029h3.646c0.291,0.34,0.724,0.558,1.205,0.558
			c0.874,0,1.583-0.71,1.583-1.586s-0.709-1.586-1.583-1.586c-0.481,0-0.914,0.212-1.205,0.558H5.272
			c-0.567,0-1.026,0.46-1.026,1.029C4.246,16.57,4.705,17.029,5.272,17.029z M10.123,25.82c0.874,0,1.583-0.71,1.583-1.586
			s-0.709-1.585-1.583-1.585c-0.482,0-0.914,0.212-1.205,0.557H5.272c-0.567,0-1.026,0.461-1.026,1.029s0.459,1.029,1.026,1.029
			h3.646C9.209,25.603,9.642,25.82,10.123,25.82z"/>
	</g>
</g>
</svg>
