<?xml version="1.0" encoding="utf-8"?>
<!-- Generator: Adobe Illustrator 16.0.0, SVG Export Plug-In . SVG Version: 6.00 Build 0)  -->
<!DOCTYPE svg PUBLIC "-//W3C//DTD SVG 1.1//EN" "http://www.w3.org/Graphics/SVG/1.1/DTD/svg11.dtd">
<svg version="1.1" id="Capa_1" xmlns="http://www.w3.org/2000/svg" xmlns:xlink="http://www.w3.org/1999/xlink" x="0px" y="0px"
	 width="32px" height="32px" viewBox="0 0 32 32" enable-background="new 0 0 32 32" xml:space="preserve">
<g>
	<g>
		<path fill="#211915" d="M11.178,20.57h9.646c0.898,0-0.759-3.961-0.759-3.961c-0.099-0.235-0.335-0.387-0.561-0.479l-1.525-0.705
			l-0.732-0.62l-1.177,1.176h-0.002l0.509,3.408c0.001,0.012-0.002,0.024-0.008,0.034l-0.532,0.729
			c-0.008,0.012-0.021,0.019-0.036,0.019s-0.028-0.007-0.036-0.019l-0.531-0.729c-0.008-0.01-0.01-0.022-0.008-0.034l0.508-3.408
			h-0.001l-1.178-1.176l-0.732,0.62l-1.525,0.705c-0.226,0.093-0.447,0.234-0.561,0.479C11.937,16.609,10.278,20.57,11.178,20.57z
			 M16,15.12c1.164,0,2.724-1.459,2.751-3.905C18.768,9.518,17.962,8.502,16,8.502s-2.768,1.015-2.75,2.712
			C13.276,13.661,14.639,15.12,16,15.12z M15.447,11.896c1.422,0.152,2.662-1.844,2.643-0.057c-0.013,1.07-1.001,2.686-2.09,2.686
			c-1.142,0-1.93-1.343-2.089-2.686C13.738,10.384,16.401,10.717,15.447,11.896z M26.637,5.842H5.364
			c-0.592,0-1.071,0.481-1.071,1.075v15.239c0,0.594,0.479,1.075,1.071,1.075h21.272c0.592,0,1.07-0.481,1.07-1.075V6.917
			C27.707,6.323,27.229,5.842,26.637,5.842z M26.101,21.617H5.899V7.455h20.201V21.617z M4.293,24.941
			c0,0.328,0.265,0.595,0.592,0.595h5.699v-1.188H4.885C4.558,24.348,4.293,24.613,4.293,24.941z M27.116,24.348H12.874v1.188
			h14.242c0.326,0,0.591-0.267,0.591-0.595S27.442,24.348,27.116,24.348z M11.729,23.725c-0.393,0-0.712,0.32-0.712,0.715v1.005
			c0,0.394,0.319,0.714,0.712,0.714s0.711-0.32,0.711-0.714v-1.005C12.44,24.045,12.122,23.725,11.729,23.725z"/>
	</g>
</g>
</svg>
