<?xml version="1.0" encoding="utf-8"?>
<!-- Generator: Adobe Illustrator 16.0.0, SVG Export Plug-In . SVG Version: 6.00 Build 0)  -->
<!DOCTYPE svg PUBLIC "-//W3C//DTD SVG 1.1//EN" "http://www.w3.org/Graphics/SVG/1.1/DTD/svg11.dtd">
<svg version="1.1" id="Capa_1" xmlns="http://www.w3.org/2000/svg" xmlns:xlink="http://www.w3.org/1999/xlink" x="0px" y="0px"
	 width="32px" height="32px" viewBox="0 0 32 32" enable-background="new 0 0 32 32" xml:space="preserve">
<g>
	<g>
		<path fill="#211915" d="M12.695,23.333h4.456c0.504,0,0.916-0.414,0.916-0.92V6.599c0-0.506-0.412-0.92-0.916-0.92h-4.456
			c-0.503,0-0.916,0.414-0.916,0.92v15.814C11.779,22.919,12.192,23.333,12.695,23.333z M14.923,21.913
			c-0.979,0-1.775-0.799-1.775-1.783c0-0.982,0.796-1.781,1.775-1.781c0.979,0,1.774,0.799,1.774,1.781
			C16.697,21.114,15.902,21.913,14.923,21.913z M12.604,7.866c0-0.337,0.274-0.613,0.61-0.613h3.418
			c0.334,0,0.609,0.276,0.609,0.613V14.2c0,0.337-0.275,0.613-0.609,0.613h-3.418c-0.336,0-0.61-0.276-0.61-0.613V7.866z
			 M13.387,9.176h1.902c0.169,0,0.305-0.137,0.305-0.307c0-0.169-0.136-0.307-0.305-0.307h-1.902c-0.168,0-0.305,0.138-0.305,0.307
			S13.219,9.176,13.387,9.176z M5.285,23.333H9.74c0.504,0,0.916-0.414,0.916-0.92V6.599c0-0.506-0.412-0.92-0.916-0.92H5.285
			c-0.503,0-0.916,0.414-0.916,0.92v15.814C4.369,22.919,4.781,23.333,5.285,23.333z M7.512,21.913
			c-0.979,0-1.775-0.799-1.775-1.783c0-0.982,0.796-1.781,1.775-1.781c0.979,0,1.775,0.799,1.775,1.781
			C9.288,21.114,8.491,21.913,7.512,21.913z M5.193,7.866c0-0.337,0.275-0.613,0.61-0.613h3.418c0.335,0,0.61,0.276,0.61,0.613V14.2
			c0,0.337-0.275,0.613-0.61,0.613H5.803c-0.335,0-0.61-0.276-0.61-0.613V7.866z M5.977,9.176h1.902
			c0.169,0,0.305-0.137,0.305-0.307c0-0.169-0.136-0.307-0.305-0.307H5.977c-0.168,0-0.305,0.138-0.305,0.307
			S5.808,9.176,5.977,9.176z M5.977,10.634h1.902c0.169,0,0.305-0.137,0.305-0.307c0-0.169-0.136-0.306-0.305-0.306H5.977
			c-0.168,0-0.305,0.137-0.305,0.306C5.671,10.498,5.808,10.634,5.977,10.634z M5.977,12.093h1.902c0.169,0,0.305-0.138,0.305-0.307
			c0-0.17-0.136-0.307-0.305-0.307H5.977c-0.168,0-0.305,0.137-0.305,0.307C5.671,11.956,5.808,12.093,5.977,12.093z M22.447,23.323
			l4.404-0.67c0.498-0.076,0.844-0.547,0.77-1.047L25.268,5.97c-0.076-0.5-0.545-0.847-1.043-0.771l-4.406,0.669
			c-0.498,0.075-0.844,0.546-0.768,1.047l2.354,15.635C21.479,23.05,21.947,23.397,22.447,23.323z M25.602,20.88
			c-0.281,0.383-0.695,0.633-1.164,0.705c-0.088,0.012-0.178,0.02-0.268,0.02c-0.869,0-1.623-0.652-1.752-1.516
			c-0.072-0.471,0.045-0.941,0.326-1.324s0.695-0.635,1.164-0.705c0.088-0.014,0.178-0.02,0.266-0.02
			c0.869,0,1.623,0.65,1.754,1.516C25.998,20.026,25.883,20.497,25.602,20.88z M20.996,14.305l-0.943-6.263
			c-0.049-0.333,0.182-0.646,0.514-0.697l3.379-0.514c0.332-0.05,0.645,0.182,0.695,0.515l0.943,6.263
			c0.049,0.334-0.182,0.647-0.514,0.698l-3.379,0.513C21.359,14.871,21.047,14.639,20.996,14.305z M20.916,8.511l1.883-0.286
			c0.166-0.024,0.281-0.181,0.256-0.349c-0.025-0.167-0.182-0.282-0.348-0.257l-1.881,0.285c-0.168,0.025-0.281,0.182-0.258,0.349
			c0.023,0.152,0.154,0.262,0.303,0.262C20.885,8.515,20.9,8.513,20.916,8.511z M24.322,9.13c-0.023-0.167-0.18-0.282-0.346-0.257
			l-2.938,0.445c-0.168,0.025-0.281,0.182-0.258,0.349c0.023,0.152,0.154,0.262,0.303,0.262c0.014,0,0.029-0.002,0.045-0.004
			l2.938-0.446C24.234,9.455,24.348,9.298,24.322,9.13z M27.967,24.845H4.033c-0.375,0-0.681,0.309-0.681,0.684v0.6
			c0,0.377,0.306,0.684,0.681,0.684h23.934c0.375,0,0.682-0.307,0.682-0.684v-0.6C28.648,25.153,28.342,24.845,27.967,24.845z"/>
	</g>
</g>
</svg>
