<?xml version="1.0" encoding="utf-8"?>
<!-- Generator: Adobe Illustrator 16.0.0, SVG Export Plug-In . SVG Version: 6.00 Build 0)  -->
<!DOCTYPE svg PUBLIC "-//W3C//DTD SVG 1.1//EN" "http://www.w3.org/Graphics/SVG/1.1/DTD/svg11.dtd">
<svg version="1.1" id="Capa_1" xmlns="http://www.w3.org/2000/svg" xmlns:xlink="http://www.w3.org/1999/xlink" x="0px" y="0px"
	 width="32px" height="32px" viewBox="0 0 32 32" enable-background="new 0 0 32 32" xml:space="preserve">
<g>
	<g>
		<path fill="#211915" d="M28.147,13.821c0-4.659-4.517-8.45-10.068-8.45c-5.551,0-10.068,3.791-10.068,8.45
			c0,4.66,4.518,8.45,10.068,8.45c0.467,0,0.936-0.025,1.396-0.079c2.137,1.359,3.716,2.104,4.695,2.213
			c0.033,0.003,0.068,0.004,0.102,0.004c0.314,0,0.604-0.155,0.778-0.419c0.193-0.293,0.205-0.666,0.032-0.972
			c-0.007-0.015-0.762-1.393-0.544-2.709C26.836,18.7,28.147,16.349,28.147,13.821z M15.346,15.099
			c-0.824,0-1.492-0.669-1.492-1.493s0.668-1.493,1.492-1.493s1.49,0.669,1.49,1.493S16.17,15.099,15.346,15.099z M20.813,15.099
			c-0.823,0-1.49-0.669-1.49-1.493s0.667-1.493,1.49-1.493c0.824,0,1.491,0.669,1.491,1.493S21.638,15.099,20.813,15.099z
			 M10.139,20.583c-1-0.828-1.787-1.798-2.34-2.881c-0.585-1.142-0.881-2.356-0.881-3.61c0-1.255,0.296-2.47,0.881-3.611
			c0.044-0.088,0.09-0.174,0.139-0.26c-2.467,1.414-4.085,3.774-4.085,6.441c0,2.397,1.29,4.62,3.544,6.114
			c0.416,1.638-0.551,3.371-0.561,3.389c-0.057,0.102-0.054,0.227,0.012,0.324c0.057,0.087,0.155,0.14,0.258,0.14
			c0.012,0,0.023-0.001,0.035-0.002c1.128-0.125,3.113-1.272,4.618-2.239c0.506,0.068,1.024,0.104,1.54,0.104
			c1.977,0,3.813-0.506,5.33-1.368c-0.339,0.026-0.68,0.041-1.021,0.041C14.8,23.164,12.146,22.247,10.139,20.583z"/>
	</g>
</g>
</svg>
