<?xml version="1.0" encoding="utf-8"?>
<!-- Generator: Adobe Illustrator 16.0.0, SVG Export Plug-In . SVG Version: 6.00 Build 0)  -->
<!DOCTYPE svg PUBLIC "-//W3C//DTD SVG 1.1//EN" "http://www.w3.org/Graphics/SVG/1.1/DTD/svg11.dtd">
<svg version="1.1" id="Capa_1" xmlns="http://www.w3.org/2000/svg" xmlns:xlink="http://www.w3.org/1999/xlink" x="0px" y="0px"
	 width="32px" height="32px" viewBox="0 0 32 32" enable-background="new 0 0 32 32" xml:space="preserve">
<g>
	<g>
		<path fill="#211915" d="M23.761,19.814c-0.188-0.434-0.639-0.712-1.07-0.883l-2.912-1.298l-1.399-1.141l-2.249,2.163h-0.001
			l0.969,6.271c0.003,0.022-0.002,0.044-0.015,0.062l-1.014,1.343c-0.016,0.021-0.042,0.034-0.069,0.034
			c-0.028,0-0.054-0.013-0.069-0.034l-1.016-1.343c-0.013-0.018-0.019-0.039-0.015-0.062l0.97-6.271H15.87l-2.248-2.163
			l-1.399,1.141l-2.913,1.298c-0.431,0.171-0.854,0.431-1.069,0.883c0.001,0-3.166,7.288-1.448,7.288h18.417
			C26.926,27.103,23.761,19.814,23.761,19.814z M16,17.073c2.221,0,5.201-2.683,5.251-7.184C21.285,6.767,19.746,4.897,16,4.897
			c-3.746,0-5.284,1.869-5.252,4.992C10.798,14.39,13.4,17.073,16,17.073z M14.945,11.144c2.715,0.28,5.083-3.394,5.044-0.104
			C19.967,13.007,18.078,15.98,16,15.98c-2.18,0-3.686-2.471-3.989-4.94C11.682,8.361,16.766,8.972,14.945,11.144z"/>
	</g>
</g>
</svg>
