<?xml version="1.0" encoding="utf-8"?>
<!-- Generator: Adobe Illustrator 16.0.0, SVG Export Plug-In . SVG Version: 6.00 Build 0)  -->
<!DOCTYPE svg PUBLIC "-//W3C//DTD SVG 1.1//EN" "http://www.w3.org/Graphics/SVG/1.1/DTD/svg11.dtd">
<svg version="1.1" id="Capa_1" xmlns="http://www.w3.org/2000/svg" xmlns:xlink="http://www.w3.org/1999/xlink" x="0px" y="0px"
	 width="32px" height="32px" viewBox="0 0 32 32" enable-background="new 0 0 32 32" xml:space="preserve">
<g>
	<g>
		<path fill="#211915" d="M12.283,15.32l-1.688,11.427l2.646-2.433l1.821,3.15l0.9-6.099l-0.935-4.937
			C14.013,16.302,13.077,15.909,12.283,15.32z M19.562,15.057c-1.036,0.889-2.362,1.424-3.808,1.424
			c-0.181,0-0.359-0.013-0.535-0.028l2.093,11.047l1.692-3.227l2.741,2.314L19.562,15.057z M15.754,15.966
			c3.036,0,5.498-2.566,5.498-5.732s-2.462-5.732-5.498-5.732c-3.037,0-5.499,2.566-5.499,5.732S12.717,15.966,15.754,15.966z
			 M14.671,8.807l1.065-2.251l1.065,2.251l2.382,0.36L17.46,10.92l0.407,2.474l-2.131-1.168l-2.131,1.168l0.407-2.474l-1.725-1.753
			L14.671,8.807z"/>
	</g>
</g>
</svg>
