<?xml version="1.0" encoding="utf-8"?>
<!-- Generator: Adobe Illustrator 16.0.0, SVG Export Plug-In . SVG Version: 6.00 Build 0)  -->
<!DOCTYPE svg PUBLIC "-//W3C//DTD SVG 1.1//EN" "http://www.w3.org/Graphics/SVG/1.1/DTD/svg11.dtd">
<svg version="1.1" id="Capa_1" xmlns="http://www.w3.org/2000/svg" xmlns:xlink="http://www.w3.org/1999/xlink" x="0px" y="0px"
	 width="32px" height="32px" viewBox="0 0 32 32" enable-background="new 0 0 32 32" xml:space="preserve">
<g>
	<g>
		<path fill="#211915" d="M13.691,24.271l-0.589-0.224c0.046-0.441,0.03-0.892-0.05-1.34l0.569-0.27
			c0.354-0.167,0.511-0.603,0.347-0.968l-0.332-0.741c-0.163-0.366-0.586-0.526-0.94-0.358l-0.57,0.271
			c-0.277-0.354-0.601-0.659-0.957-0.91l0.217-0.604c0.136-0.378-0.053-0.798-0.419-0.938l-0.744-0.282
			c-0.356-0.136-0.78,0.066-0.912,0.432l-0.217,0.604c-0.429-0.047-0.868-0.03-1.303,0.052l-0.263-0.586
			c-0.164-0.364-0.585-0.525-0.941-0.357l-0.721,0.341c-0.354,0.17-0.512,0.604-0.348,0.969l0.262,0.586
			c-0.345,0.286-0.64,0.618-0.885,0.985l-0.588-0.224c-0.354-0.136-0.78,0.064-0.912,0.432L3.12,21.905
			c-0.065,0.184-0.058,0.381,0.021,0.559c0.08,0.177,0.221,0.311,0.397,0.378l0.591,0.225c-0.048,0.44-0.032,0.893,0.049,1.339
			L3.61,24.676c-0.356,0.168-0.511,0.602-0.348,0.967l0.333,0.742c0.164,0.365,0.585,0.525,0.941,0.357l0.569-0.27
			c0.277,0.354,0.601,0.658,0.958,0.909l-0.218,0.606c-0.066,0.183-0.059,0.38,0.021,0.558c0.078,0.177,0.22,0.312,0.397,0.38
			l0.746,0.283c0.177,0.066,0.37,0.059,0.542-0.021c0.173-0.082,0.304-0.229,0.368-0.411l0.219-0.605
			c0.429,0.048,0.866,0.031,1.303-0.051l0.261,0.585c0.163,0.364,0.587,0.525,0.94,0.357l0.723-0.341
			c0.355-0.17,0.511-0.604,0.347-0.969l-0.261-0.586c0.343-0.286,0.64-0.618,0.883-0.984l0.589,0.224
			c0.179,0.068,0.371,0.061,0.544-0.021c0.172-0.082,0.302-0.228,0.367-0.41l0.275-0.767C14.246,24.831,14.057,24.41,13.691,24.271z
			 M9.791,26.177c-0.374,0.177-0.768,0.266-1.175,0.266c-1.092,0-2.093-0.658-2.548-1.679c-0.647-1.445-0.032-3.162,1.374-3.827
			c0.371-0.177,0.766-0.265,1.172-0.265c1.092,0,2.093,0.659,2.55,1.678C11.81,23.795,11.194,25.512,9.791,26.177z M20.706,26.359
			l-0.327-0.123c0.026-0.247,0.017-0.498-0.027-0.746l0.316-0.15c0.197-0.094,0.285-0.336,0.194-0.539l-0.187-0.413
			c-0.091-0.204-0.326-0.294-0.522-0.199l-0.318,0.15c-0.154-0.197-0.335-0.367-0.533-0.508l0.122-0.337
			c0.075-0.21-0.03-0.443-0.235-0.521l-0.414-0.157c-0.198-0.076-0.434,0.036-0.507,0.239l-0.122,0.339
			c-0.238-0.027-0.481-0.019-0.724,0.027l-0.146-0.325c-0.091-0.204-0.326-0.293-0.525-0.2l-0.401,0.19
			c-0.197,0.095-0.283,0.336-0.193,0.539l0.146,0.327c-0.191,0.159-0.357,0.344-0.493,0.548l-0.327-0.123
			c-0.197-0.076-0.435,0.035-0.508,0.239l-0.152,0.427c-0.037,0.103-0.033,0.212,0.011,0.311c0.045,0.099,0.124,0.174,0.223,0.211
			l0.327,0.125c-0.025,0.246-0.017,0.497,0.027,0.746l-0.315,0.15c-0.199,0.093-0.285,0.335-0.194,0.538l0.186,0.413
			c0.091,0.203,0.327,0.293,0.523,0.199l0.317-0.149c0.155,0.196,0.334,0.365,0.534,0.506l-0.122,0.337
			c-0.037,0.103-0.032,0.212,0.012,0.311s0.123,0.174,0.222,0.212l0.415,0.158c0.099,0.036,0.204,0.032,0.3-0.013
			c0.098-0.046,0.17-0.127,0.206-0.229l0.121-0.337c0.239,0.026,0.483,0.018,0.727-0.029l0.146,0.327
			c0.092,0.202,0.326,0.291,0.523,0.198l0.401-0.19c0.199-0.094,0.285-0.335,0.194-0.539l-0.146-0.326
			c0.191-0.159,0.357-0.344,0.492-0.548l0.328,0.124c0.099,0.038,0.207,0.034,0.303-0.012c0.095-0.045,0.169-0.127,0.205-0.229
			l0.153-0.427C21.016,26.671,20.91,26.438,20.706,26.359z M18.535,27.421c-0.207,0.099-0.427,0.147-0.654,0.147
			c-0.608,0-1.165-0.367-1.418-0.934c-0.36-0.804-0.018-1.761,0.764-2.131c0.207-0.099,0.427-0.147,0.653-0.147
			c0.606,0,1.165,0.366,1.42,0.934C19.659,26.095,19.316,27.05,18.535,27.421z M28.145,13.52l-0.991-0.376
			c0.078-0.743,0.054-1.5-0.083-2.253l0.957-0.453c0.597-0.281,0.858-1.012,0.583-1.627l-0.558-1.247
			c-0.275-0.614-0.985-0.885-1.581-0.601l-0.958,0.454c-0.468-0.596-1.011-1.108-1.61-1.53l0.364-1.018
			c0.228-0.635-0.088-1.342-0.704-1.576l-1.252-0.476c-0.599-0.226-1.313,0.112-1.532,0.726l-0.366,1.019
			c-0.722-0.08-1.458-0.054-2.188,0.085l-0.442-0.983c-0.275-0.614-0.984-0.884-1.583-0.601l-1.212,0.574
			c-0.597,0.284-0.859,1.014-0.585,1.628l0.441,0.984c-0.578,0.481-1.076,1.04-1.487,1.657l-0.989-0.376
			c-0.596-0.229-1.311,0.11-1.532,0.725l-0.462,1.289c-0.111,0.308-0.098,0.641,0.035,0.938c0.134,0.298,0.372,0.524,0.67,0.636
			l0.991,0.377c-0.078,0.742-0.053,1.5,0.083,2.252l-0.956,0.453c-0.599,0.284-0.86,1.012-0.585,1.627l0.56,1.247
			c0.274,0.613,0.984,0.883,1.58,0.601l0.957-0.453c0.47,0.596,1.012,1.106,1.611,1.529l-0.364,1.018
			c-0.111,0.307-0.099,0.641,0.035,0.938c0.131,0.298,0.371,0.523,0.669,0.639l1.251,0.475c0.298,0.113,0.624,0.1,0.912-0.037
			c0.29-0.136,0.51-0.381,0.62-0.688l0.366-1.02c0.721,0.081,1.457,0.055,2.19-0.084l0.44,0.983
			c0.275,0.613,0.984,0.884,1.583,0.601L24.235,21c0.599-0.283,0.858-1.013,0.583-1.627l-0.439-0.983
			c0.578-0.482,1.077-1.04,1.487-1.657l0.989,0.377c0.3,0.113,0.624,0.1,0.914-0.038c0.288-0.136,0.508-0.381,0.618-0.688
			l0.463-1.289C29.077,14.461,28.762,13.754,28.145,13.52z M21.584,16.725c-0.624,0.295-1.287,0.445-1.972,0.445
			c-1.835,0-3.516-1.108-4.284-2.822c-1.088-2.429-0.053-5.315,2.31-6.434c0.623-0.296,1.287-0.445,1.969-0.445
			c1.837,0,3.52,1.107,4.287,2.82C24.982,12.719,23.946,15.604,21.584,16.725z"/>
	</g>
</g>
</svg>
